<?xml version="1.0" encoding="utf-8"?>
<!-- Generator: Adobe Illustrator 19.0.0, SVG Export Plug-In . SVG Version: 6.00 Build 0)  -->
<svg version="1.1" id="图层_1" xmlns="http://www.w3.org/2000/svg" xmlns:xlink="http://www.w3.org/1999/xlink" x="0px" y="0px"
	 viewBox="0 0 85 20" style="enable-background:new 0 0 85 20;" xml:space="preserve">
<style type="text/css">
	.st0{fill:#FFFFFF;}
	.st1{fill-rule:evenodd;clip-rule:evenodd;fill:#FFFFFF;}
</style>
<g id="XMLID_2_">
	<g id="XMLID_42_">
		<path id="XMLID_43_" class="st0" d="M18,0.3l-6.7,9.8L18,20l0,0h10.5V0.3H18z M0,20h10.5V0.3H0V20z"/>
	</g>
	<g id="XMLID_3_">
		<g id="XMLID_28_">
			<rect id="XMLID_41_" x="35.1" y="14.1" class="st1" width="1.1" height="5.6"/>
			<rect id="XMLID_40_" x="44.2" y="14.1" class="st1" width="1.1" height="5.6"/>
			<rect id="XMLID_39_" x="53.5" y="14.1" class="st1" width="1.1" height="5.6"/>
			<rect id="XMLID_38_" x="41.9" y="14.1" class="st1" width="5.8" height="1"/>
			<path id="XMLID_37_" class="st1" d="M41.3,19.7l-3-2.8l2.9-2.7h-1.5l-2.2,2.1c-0.1,0.1-0.3,0.2-0.5,0.2c-0.2,0-1.6,0-1.6,0v0.9
				c0,0,1.5,0,1.7,0c0.2,0,0.3,0,0.4,0.2l2.3,2.2H41.3z"/>
			<path id="XMLID_36_" class="st1" d="M59.5,19.7l-1.6-2.1c0.5-0.2,0.9-0.6,0.9-1.2v-1.1c0-0.9-0.6-1.3-1.7-1.3h-3.7V15
				c0,0,2.7,0,3.6,0c0.7,0,0.8,0.2,0.8,0.5v0.8c0,0.4-0.3,0.5-0.7,0.5h-3.6v0.9c0,0,2.6,0,3,0c0.4,0,0.4,0.1,0.5,0.3l1.2,1.6H59.5z"
				/>
			<rect id="XMLID_35_" x="60.7" y="18.5" class="st1" width="1.1" height="1.2"/>
			<path id="XMLID_32_" class="st1" d="M69.4,15.8v2.5c0,1.1,0.8,1.4,1.5,1.4c0.5,0,3.2,0,3.2,0c0.6,0,1.2-0.5,1.2-1.4
				c0-1.1,0-2.5,0-2.5c0-1-0.4-1.7-1.7-1.7c-0.5,0-1.6,0-2.6,0C70.2,14.1,69.4,14.5,69.4,15.8z M70.5,18.3v-2.7
				c0-0.5,0.5-0.6,0.8-0.6c0.7,0,1.6,0,2.2,0c0.5,0,0.7,0.3,0.7,0.6v2.7c0,0.3-0.1,0.6-0.5,0.6c-0.8,0-2.4,0-2.7,0
				C70.8,18.8,70.5,18.7,70.5,18.3z"/>
			<path id="XMLID_31_" class="st1" d="M50.5,14.2v4.2c0,0.3-0.2,0.5-0.5,0.5c0,0-1.2,0-2,0c-0.2,0-0.2,0-0.7-0.1v0.8
				c0.3,0.1,0.8,0.1,1.1,0.1c0.9,0,1.7,0,1.7,0c0.9,0,1.4-0.7,1.4-1.5v-4.1H50.5z"/>
			<path id="XMLID_30_" class="st1" d="M65,15c0.4,0,1.6,0,2.4,0c0.4,0,0.9,0.1,0.9,0.1v-0.8c-0.5-0.1-1.3-0.1-1.6-0.1
				c-0.5,0-2.1,0-2.1,0c-0.6,0-1.5,0.2-1.5,1.7V18c0,1.5,0.9,1.7,1.5,1.7h2.6c0.2,0,1-0.1,1.1-0.2v-0.8c0,0-0.5,0.1-0.9,0.1h-2.3
				c-0.7,0-0.8-0.2-0.8-0.5v-2.7C64.3,15.3,64.3,15,65,15z"/>
			<path id="XMLID_29_" class="st1" d="M82.3,14.1c-0.2,0-0.3,0.1-0.3,0.2c0,0-1.5,3.9-1.5,3.9c0,0,0,0,0,0c0,0,0,0,0,0
				c0,0.1-1.5-3.9-1.5-3.9c0-0.1-0.1-0.2-0.3-0.2c-0.1,0-2,0-2,0v5.6h1.1v-4.6c0,0,0.2,0,0.3,0c0.1,0,0.2,0.1,0.2,0.1l1.5,3.8
				c0,0.1,0,0.1,0.2,0.1h1.1c0.2,0,0.2-0.1,0.2-0.1l1.5-3.8c0-0.1,0.1-0.1,0.2-0.1c0.1,0,0.3,0,0.3,0v4.6h1.1v-5.6
				C84.4,14.1,82.4,14.1,82.3,14.1z"/>
		</g>
		<path id="XMLID_4_" class="st0" d="M73.6,1.4h5.9V0.3h-5.9V1.4z M77.9,7.1h-0.9l-0.4,1.7h-0.1l-0.4-1.7h-0.9l0.4,1.7h-0.4v0.9H76
			v1.6h1.1V9.7H78V8.8h-0.4L77.9,7.1z M74,2v2.9h5.2V2L74,2z M77.9,3.9h-2.7V3.1h2.7V3.9z M73.6,11.3h1.2V6.6h3.5v4.7h1.2V5.5h-5.9
			V11.3z M84.9,8.8h-1.1l0.1,1.5h-1V7.5h1.9v-6h-1.9V0h-1.1v1.4H80v6h1.8v2.8H80v1.1h5L84.9,8.8z M82.9,2.6h0.8v3.8h-0.8V2.6z
			 M81.9,6.4h-0.7V2.6h0.7V6.4z M52.3,7.9h2.1v1.6h1.2V7.9h2.1v1.6h1.2V2.8h-2.1l0.2-0.1C57.4,2.4,58,2,58.4,1.6l0,0V0.3h-7.2v1.2
			h5.7l-0.2,0.1C56,2,55.1,2.5,54.2,2.8L54,2.8L53.8,2h-1.3l0.2,0.8h-1.6v6.6h1.2V7.9z M55.5,3.8h2.1v1h-2.1V3.8z M55.5,5.9h2.1v0.9
			h-2.1V5.9z M52.3,3.8h2.1v1h-2.1V3.8z M52.3,5.9h2.1v0.9h-2.1V5.9z M49.5,2.9L49,0.3h-1.3l0.5,2.6H49.5z M50,9V4.9h-2.5V6h1.3
			l0,2.9c-0.1,0.4-0.3,0.7-0.6,1c-0.2,0.1-0.4,0.2-0.7,0.3l0,0v1.2l0.1,0c0.7-0.1,1.2-0.4,1.6-0.8l0,0l0,0.1c0.5,0.7,1.4,0.7,2,0.7
			h0.2l0.1,0h7.9v-1.2h-7.6C50.5,10.2,50,9.8,50,9z M70.5,8.4h-1.3l-0.3,1.7H67V7.3h4.8V6.2H67V4.8h3.1V3.7h-7.4v1.1h3.1v1.4H61v1.1
			h4.8v2.9H64l-0.3-1.7h-1.3l0.3,1.7h-2.1v1.2h11.6v-1.2h-2L70.5,8.4z M44,1.6h1.9V0.3H34.6v1.3h2.1V5h-2.3v1.3h2.3c0,0,0,0.7,0,0.9
			c-0.1,1.8-1.6,2.8-2.1,2.9v1.3c0,0,3.3-0.6,3.4-4.5c0-0.1,0-0.7,0-0.7h4.5v5H44v-5H46V5H44V1.6z M42.6,5h-4.5V1.6h4.5V5z
			 M66.3,1.3L66.3,1.3L66.3,1.3L66.3,1.3C67.8,2.5,70.2,3.6,72,4l0.1,0V2.7l-0.1,0C70.3,2.3,68.2,1.2,67,0l0,0h-0.6v0h-0.6l0,0
			c-1.2,1.2-3.3,2.3-5.1,2.7l-0.1,0V4l0.1,0C62.5,3.6,65,2.5,66.3,1.3z"/>
	</g>
</g>
</svg>
